<?xml version="1.0" standalone="no"?><!DOCTYPE svg PUBLIC "-//W3C//DTD SVG 1.1//EN" "http://www.w3.org/Graphics/SVG/1.1/DTD/svg11.dtd"><svg t="1779264710294" class="icon" viewBox="0 0 1024 1024" version="1.1" xmlns="http://www.w3.org/2000/svg" p-id="6675" xmlns:xlink="http://www.w3.org/1999/xlink" width="200" height="200"><path d="M768 256h-64V192h128v128h-64V256zM320 192v64H256v64H192V192h128zM192 512h64v64h64v64H192V512zM704 640V576h64V512h64v128h-128z" fill="#000000" p-id="6676"></path><path d="M64 128a64 64 0 0 1 64-64h768a64 64 0 0 1 64 64v576a64 64 0 0 1-64 64H128a64 64 0 0 1-64-64V128z m832 576V128H128v576h768zM832 896H192v64h640v-64z" fill="#000000" p-id="6677"></path></svg>